<svg xmlns="http://www.w3.org/2000/svg" width="29mm" height="21mm" viewBox="0 0 297 210"><ellipse cx="170.31" cy="84.908" rx="82.901" ry="84.051" transform="rotate(7.64) skewX(.143)" fill="#fff" stroke="#fff" stroke-width="6.5" stroke-linecap="round" stroke-linejoin="round"/><g stroke-linecap="round" stroke-linejoin="round"><ellipse cx="141.897" cy="127.623" rx="82.902" ry="84.05" transform="rotate(-8.009) skewX(-.15)" fill="#6565e5" stroke="#3303b1" stroke-width="1.28"/><path d="M75.597 113.103c30.838-10.764 106.16-18.413 165.31-.081-2.676 39.52-33.804 76.73-78.566 78.227-42.09-2.008-79.858-21.177-86.744-78.146z" fill="#66b2b2" stroke="#1e82f0" stroke-width=".265"/><ellipse cx="170.626" cy="84.961" rx="82.901" ry="84.051" transform="rotate(7.64) skewX(.143)" fill="none" stroke="#6565e5" stroke-width="1.837"/></g><ellipse cx="144.759" cy="63.789" rx="1.309" ry="1.296" transform="matrix(.98538 -.17035 .16502 .98629 0 0)" fill="#fff"/><ellipse cx="139.395" cy="58.461" rx=".871" ry=".89" transform="matrix(.98644 -.16412 .17127 .98522 0 0)" fill="#fff"/><ellipse cx="150.217" cy="57.14" rx="1.309" ry="1.296" transform="matrix(.98538 -.17035 .16502 .98629 0 0)" fill="#fff"/><ellipse cx="158.389" cy="62.188" rx=".871" ry=".89" transform="matrix(.98644 -.16412 .17127 .98522 0 0)" fill="#fff"/><ellipse cx="97.513" cy="69.216" rx="1.309" ry="1.296" transform="matrix(.98538 -.17035 .16502 .98629 0 0)" fill="#fff"/><ellipse cx="92.586" cy="71.582" rx=".871" ry=".89" transform="matrix(.98644 -.16412 .17127 .98522 0 0)" fill="#fff"/><ellipse cx="99.069" cy="79.909" rx=".871" ry=".89" transform="matrix(.98644 -.16412 .17127 .98522 0 0)" fill="#fff"/><ellipse cx="189.748" cy="122.616" rx=".871" ry=".89" transform="matrix(.98644 -.16412 .17127 .98522 0 0)" fill="#fff"/><ellipse cx="196.044" cy="127.215" rx=".871" ry=".89" transform="matrix(.98644 -.16412 .17127 .98522 0 0)" fill="#fff"/><ellipse cx="208.891" cy="125.403" rx=".871" ry=".89" transform="matrix(.98644 -.16412 .17127 .98522 0 0)" fill="#fff"/><ellipse cx="69.419" cy="99.555" rx=".871" ry=".89" transform="matrix(.98644 -.16412 .17127 .98522 0 0)" fill="#fff"/><ellipse cx="80.061" cy="104.947" rx=".871" ry=".89" transform="matrix(.98644 -.16412 .17127 .98522 0 0)" fill="#fff"/><ellipse cx="74.61" cy="95.601" rx=".871" ry=".89" transform="matrix(.98644 -.16412 .17127 .98522 0 0)" fill="#fff"/><g transform="matrix(1.23888 0 0 1.18024 -15.158 4.539)"><path d="M174.342 41.045l-4.737-5.67" fill="none" stroke="#e0e0fa" stroke-width=".265"/><ellipse transform="matrix(.98644 -.16412 .17127 .98522 0 0)" ry=".89" rx=".871" cy="62.605" cx="160.992" fill="#fff"/><ellipse transform="matrix(.98538 -.17035 .16502 .98629 0 0)" ry="1.296" rx="1.309" cy="74.676" cx="168.114" fill="#fff"/><path d="M174.342 41.045v7.654" fill="none" stroke="#e0e0fa" stroke-width=".265"/><ellipse transform="matrix(.98538 -.17035 .16502 .98629 0 0)" ry="1.296" rx="1.309" cy="77.583" cx="163.647" fill="#fff"/><path d="M174.342 41.045l3.685 4.346" fill="#fff" stroke="#fff" stroke-width=".265" stroke-opacity=".8"/><ellipse transform="matrix(.98538 -.17035 .16502 .98629 0 0)" ry="1.296" rx="1.309" cy="70.113" cx="164.994" fill="#fff"/></g><ellipse cx="201.998" cy="120.893" rx="1.577" ry="1.563" transform="matrix(.98534 -.17058 .1648 .98633 0 0)" fill="#fff"/><g transform="matrix(.92941 0 0 .92015 -89.579 -18.076)"><ellipse transform="matrix(.98538 -.17035 .16502 .98629 0 0)" ry="1.296" rx="1.309" cy="116.367" cx="201.923" fill="#fff"/><path d="M217.512 79.963l.656-4.8.651 4.774 4.297.427-4.235.486-.562 4.32-.827-4.364-4.317-.283z" fill="#fff"/></g><g><path d="M92.073 118.482l34.345 47.686" fill="none" stroke="red" stroke-width=".265"/></g><g><path d="M89.6 125.364c6.213-24.181 23.562-49.746 42.156-65.054l12.514 15.215c-13.686 29.247-15.166 60.02-17.852 90.643-12.88-21.164-25.463-33.499-36.817-40.804z" fill="#1e1e1e"/><path d="M144.27 75.525L131.756 60.31c8.957-6.001 17.904-12.098 27.556-11.848 15.735 4.624 18.357 11.122 24.864 17.065-14.352-1.917-26.882 5.279-39.906 9.998z" fill="#1e1e1e"/><path d="M144.27 75.525c-15.31 34.156-15.519 61.952-17.852 90.643l12.676-3.302c29.147-31.443 25.852-53.87 34.237-70.654-10.548-4.712-20.65-11.975-29.061-16.687M184.176 65.527c-1.005 11.735-5.661 20.523-10.845 26.685 32.95 18.315 27.544 35.314 35.093 53.603l10.737-2.365c-5.308-26.993-12.955-53.865-34.985-77.923z" fill="#fff"/><path d="M144.27 75.525c14.943-7.6 28.522-11.652 39.906-9.998-.51 8.697-3.219 19.411-10.845 26.685-10.273-3.127-20.924-9.646-29.061-16.687z" fill="#fde839"/><path d="M173.33 92.212c-20.064 18.505-29.112 41.3-34.236 70.654l69.33-17.05c-6.17-20.518-6.82-37.091-32.164-52.092" fill="#4d4d4d"/></g><g><path d="M160.232 107.814l46.993 28.78 1.199 9.221-69.33 17.051c4.09-20.263 8.643-40.227 21.138-55.052z" fill="#717171"/></g><g fill="none"><path d="M173.33 92.212c10.942-10.653 10.332-24.602 10.846-26.685-17.211.06-26.87 3.911-39.906 9.998 5.128 4.664 22.03 15.102 29.06 16.687zM126.418 166.168c.393-65.94 28.16-118.156 32.894-117.706M219.161 143.45c-3.088-31.645-30.448-87.76-59.849-94.988" stroke="#6565e5" stroke-width="1.834" stroke-linecap="round" stroke-linejoin="round"/><path d="M159.312 48.462c-39.444 1.973-69.933 67.678-69.711 76.902 18.455 10.452 28.855 28.32 36.817 40.804M126.418 166.168l92.743-22.718" stroke="#6565e5" stroke-width="1.834" stroke-linecap="round" stroke-linejoin="round"/><path d="M144.27 75.525L131.756 60.31" stroke="#7070e4" stroke-width="1.834"/><path d="M206.47 136.027l-46.238-28.213" stroke="#afafaf" stroke-width="1.465" stroke-linejoin="round" paint-order="fill markers stroke"/><path d="M139.094 162.866c7.557-42.468 20.083-55.785 34.237-70.654 23.418 11.692 27.95 26.174 32.08 40.891 1.351 4.812 2.505 9.764 3.013 12.712" stroke="#6565e5" stroke-width="1.834" stroke-linecap="round" stroke-linejoin="round"/></g></svg>
